<?xml version="1.0" encoding="UTF-8"?>
<svg id="Layer_2" data-name="Layer 2" xmlns="http://www.w3.org/2000/svg" xmlns:xlink="http://www.w3.org/1999/xlink" viewBox="0 0 1153.81 528.85">
  <defs>
    <style>
      .cls-1 {
        fill: url(#linear-gradient-2);
      }

      .cls-2 {
        fill: #fff;
      }

      .cls-3 {
        fill: url(#linear-gradient-4);
      }

      .cls-4 {
        fill: url(#linear-gradient-3);
      }

      .cls-5 {
        fill: url(#linear-gradient-5);
      }

      .cls-6 {
        fill: url(#linear-gradient-7);
      }

      .cls-7 {
        fill: url(#linear-gradient-6);
      }

      .cls-8 {
        fill: url(#linear-gradient);
      }
    </style>
    <linearGradient id="linear-gradient" x1="0" y1="264.43" x2="399.03" y2="264.43" gradientUnits="userSpaceOnUse">
      <stop offset="0" stop-color="#76c160"/>
      <stop offset=".97" stop-color="#29a84e"/>
      <stop offset="1" stop-color="#26a74d"/>
    </linearGradient>
    <linearGradient id="linear-gradient-2" x1="465.01" y1="135.36" x2="682.72" y2="135.36" gradientUnits="userSpaceOnUse">
      <stop offset="0" stop-color="#407dc0"/>
      <stop offset="1" stop-color="#3760ac"/>
    </linearGradient>
    <linearGradient id="linear-gradient-3" x1="723.74" y1="135.67" x2="911.8" y2="135.67" xlink:href="#linear-gradient-2"/>
    <linearGradient id="linear-gradient-4" x1="962.28" y1="135.83" x2="1153.81" y2="135.83" xlink:href="#linear-gradient-2"/>
    <linearGradient id="linear-gradient-5" x1="465.01" y1="393.81" x2="646.12" y2="393.81" gradientUnits="userSpaceOnUse">
      <stop offset="0" stop-color="#76c160"/>
      <stop offset="1" stop-color="#26a74d"/>
    </linearGradient>
    <linearGradient id="linear-gradient-6" x1="642.97" y1="420.15" x2="798.84" y2="420.15" xlink:href="#linear-gradient-5"/>
    <linearGradient id="linear-gradient-7" x1="835.13" y1="418.26" x2="1064.52" y2="418.26" xlink:href="#linear-gradient-5"/>
  </defs>
  <g id="Layer_1-2" data-name="Layer 1">
    <g>
      <g>
        <path class="cls-8" d="M187.08,524.75c-35.13-52.07-73.33-102.08-108.88-153.87C28.55,298.53-15.71,245.59,5.4,150.88,43.99-22.26,287.07-54.77,373.23,97.23c40.04,70.63,31.22,147.59-11,214.54-45.89,72.77-106.58,140.62-154.33,212.63-6.18,6.82-14.04,4.9-20.82.35ZM258.48,175.04c11.17-12.23,23.1-23.93,34.11-36.36,3.06-6.73-15.35-23.26-20.52-27.57-90.72-75.64-227.39,18.29-179.68,129.81,10.13,23.67,60.53,76.59,81.65,92.93,9.09,7.03,14.7,8.05,24.88,1.64,38.52-45.02,80.88-86.73,120.36-130.81,7.39-8.25,22.98-22.94,23.94-33.2,1.55-16.51-19.1-32.94-33.68-21.08-24.86,25.6-49.5,51.48-74.03,77.38-7.11,7.5-40.97,47.89-46.67,49.59-3.61,1.08-5.53.43-8.63-1.38-3.33-1.96-27.7-27.04-31.03-31.3-8.29-10.63-17.82-28.55-1.69-37.22,8.72-4.68,14.21-2.14,21.28,3.37,5.68,4.42,25.37,28.89,30.77,27.46,20.1-20.67,39.51-42,58.94-63.27Z"/>
        <path class="cls-2" d="M258.48,175.04c-19.43,21.27-38.83,42.61-58.94,63.27-5.41,1.43-25.1-23.04-30.77-27.46-7.07-5.51-12.56-8.05-21.28-3.37-16.13,8.67-6.61,26.59,1.69,37.22,3.33,4.26,27.7,29.35,31.03,31.3,3.1,1.82,5.01,2.46,8.63,1.38,5.7-1.7,39.56-42.09,46.67-49.59,24.54-25.9,49.17-51.78,74.03-77.38,14.58-11.86,35.22,4.57,33.68,21.08-.96,10.26-16.55,24.95-23.94,33.2-39.48,44.08-81.85,85.79-120.36,130.81-10.19,6.4-15.79,5.39-24.88-1.64-21.12-16.34-71.52-69.25-81.65-92.93-47.7-111.51,88.96-205.45,179.68-129.81,5.17,4.31,23.58,20.83,20.52,27.57-11.01,12.43-22.94,24.13-34.11,36.36Z"/>
      </g>
      <g>
        <g>
          <path class="cls-1" d="M682.72,135.52c0,18.73-2.79,35.18-8.36,49.38-5.58,14.2-13.2,26.09-22.88,35.66-9.68,9.57-21.19,16.78-34.55,21.61-13.36,4.84-27.72,7.26-43.07,7.26s-29.03-2.42-42.28-7.26c-13.25-4.84-24.82-12.04-34.71-21.61-9.89-9.57-17.67-21.46-23.35-35.66-5.68-14.2-8.52-30.66-8.52-49.38s2.94-35.18,8.84-49.38c5.89-14.2,13.83-26.14,23.82-35.81,9.99-9.67,21.56-16.93,34.71-21.77,13.14-4.84,26.98-7.26,41.49-7.26s29.03,2.42,42.28,7.26c13.25,4.84,24.82,12.1,34.71,21.77,9.89,9.68,17.67,21.61,23.35,35.81,5.68,14.2,8.52,30.66,8.52,49.38ZM515.81,135.52c0,10.73,1.31,20.41,3.95,29.03,2.63,8.63,6.41,16.04,11.36,22.25,4.94,6.21,10.99,10.99,18.14,14.36,7.15,3.37,15.35,5.05,24.61,5.05s17.2-1.68,24.45-5.05c7.26-3.36,13.36-8.15,18.3-14.36,4.94-6.2,8.73-13.62,11.36-22.25,2.63-8.62,3.94-18.3,3.94-29.03s-1.32-20.45-3.94-29.19c-2.63-8.73-6.42-16.2-11.36-22.4-4.95-6.2-11.04-10.99-18.3-14.36-7.26-3.36-15.41-5.05-24.45-5.05s-17.46,1.74-24.61,5.21c-7.15,3.47-13.2,8.31-18.14,14.51-4.95,6.21-8.73,13.68-11.36,22.4-2.63,8.73-3.95,18.35-3.95,28.87Z"/>
          <path class="cls-4" d="M870.47,245.01c-14.1-25.03-29.34-49.75-45.75-74.15-16.41-24.4-33.87-47.43-52.38-69.1v143.25h-48.59V26.34h40.07c6.94,6.94,14.62,15.46,23.04,25.56,8.41,10.1,16.98,20.88,25.71,32.34,8.73,11.47,17.4,23.35,26.03,35.66,8.62,12.31,16.72,24.14,24.3,35.5V26.34h48.91v218.66h-41.34Z"/>
          <path class="cls-3" d="M1153.81,135.52c0,18.93-2.95,35.45-8.84,49.54-5.89,14.1-14.25,25.77-25.09,35.03-10.84,9.26-24.03,16.2-39.6,20.83-15.57,4.62-33.03,6.94-52.38,6.94-8.84,0-19.15-.37-30.92-1.1-11.78-.74-23.35-2.26-34.71-4.58V29.18c11.36-2.1,23.19-3.52,35.5-4.26,12.31-.74,22.88-1.1,31.71-1.1,18.72,0,35.7,2.1,50.96,6.31,15.25,4.21,28.34,10.84,39.28,19.88,10.93,9.05,19.35,20.62,25.24,34.71,5.89,14.1,8.84,31.03,8.84,50.8ZM1011.5,204.93c2.31.21,4.99.37,8.05.47,3.05.11,6.68.16,10.89.16,24.61,0,42.86-6.2,54.75-18.62,11.88-12.41,17.83-29.55,17.83-51.43s-5.68-40.28-17.04-52.06c-11.36-11.78-29.34-17.67-53.96-17.67-3.37,0-6.84.05-10.41.16-3.58.11-6.94.37-10.1.79v138.2Z"/>
        </g>
        <g>
          <path class="cls-5" d="M646.12,284.48v41.97h-65.95v176.7h-49.22v-176.7h-65.94v-41.97h181.12Z"/>
          <path class="cls-7" d="M642.97,421.42c0-14.72,2.26-27.61,6.78-38.65,4.52-11.04,10.46-20.24,17.83-27.61,7.36-7.36,15.83-12.94,25.4-16.72,9.57-3.79,19.4-5.68,29.5-5.68,23.56,0,42.17,7.21,55.85,21.61,13.67,14.41,20.51,35.61,20.51,63.58,0,2.74-.11,5.73-.31,8.99-.21,3.26-.42,6.15-.63,8.68h-106.65c1.05,9.68,5.57,17.35,13.57,23.03,7.99,5.68,18.72,8.52,32.18,8.52,8.62,0,17.09-.79,25.4-2.37,8.31-1.58,15.09-3.52,20.35-5.84l6.31,38.18c-2.52,1.26-5.89,2.52-10.1,3.79-4.21,1.26-8.89,2.37-14.04,3.31-5.16.95-10.68,1.74-16.57,2.37-5.89.63-11.78.95-17.67.95-14.94,0-27.93-2.21-38.97-6.63-11.04-4.42-20.19-10.46-27.45-18.14-7.26-7.68-12.62-16.77-16.09-27.29-3.47-10.52-5.2-21.87-5.2-34.08ZM753.4,403.43c-.21-3.99-.9-7.89-2.05-11.68-1.16-3.79-2.95-7.15-5.36-10.1-2.42-2.94-5.47-5.36-9.15-7.26-3.68-1.89-8.26-2.84-13.73-2.84s-9.78.9-13.57,2.68c-3.79,1.79-6.94,4.16-9.47,7.1-2.52,2.95-4.47,6.36-5.84,10.25-1.37,3.89-2.37,7.84-3,11.83h62.16Z"/>
          <path class="cls-6" d="M926.32,415.11c0-15.15-1.95-25.87-5.84-32.19-3.89-6.31-10.57-9.46-20.03-9.46-2.95,0-6,.16-9.15.47-3.16.32-6.21.69-9.15,1.1v128.11h-47.01v-160.29c3.99-1.05,8.68-2.15,14.04-3.31,5.36-1.15,11.04-2.21,17.04-3.15,6-.95,12.15-1.68,18.46-2.21,6.31-.52,12.51-.79,18.62-.79,11.99,0,21.72,1.53,29.19,4.58,7.46,3.05,13.62,6.68,18.46,10.89,6.73-4.84,14.46-8.62,23.19-11.36,8.73-2.73,16.77-4.1,24.14-4.1,13.25,0,24.14,1.84,32.66,5.52,8.52,3.68,15.3,8.89,20.35,15.62,5.05,6.73,8.52,14.73,10.41,23.98,1.89,9.26,2.84,19.56,2.84,30.92v93.71h-47.01v-88.03c0-15.15-1.95-25.87-5.84-32.19-3.9-6.31-10.57-9.46-20.04-9.46-2.53,0-6.05.63-10.57,1.89-4.52,1.26-8.26,2.84-11.2,4.73,1.47,4.84,2.42,9.94,2.84,15.3.42,5.36.63,11.1.63,17.2v90.56h-47.01v-88.03Z"/>
        </g>
      </g>
    </g>
  </g>
</svg>