<?xml version="1.0" encoding="UTF-8"?>
<svg id="Layer_2" data-name="Layer 2" xmlns="http://www.w3.org/2000/svg" xmlns:xlink="http://www.w3.org/1999/xlink" viewBox="0 0 399.03 528.85">
  <defs>
    <style>
      .cls-1 {
        fill: #fff;
      }

      .cls-2 {
        fill: url(#linear-gradient);
      }
    </style>
    <linearGradient id="linear-gradient" x1="0" y1="264.43" x2="399.03" y2="264.43" gradientUnits="userSpaceOnUse">
      <stop offset="0" stop-color="#76c160"/>
      <stop offset=".97" stop-color="#29a84e"/>
      <stop offset="1" stop-color="#26a74d"/>
    </linearGradient>
  </defs>
  <g id="Layer_1-2" data-name="Layer 1">
    <g>
      <path class="cls-2" d="M187.08,524.75c-35.13-52.07-73.33-102.08-108.88-153.87C28.55,298.53-15.71,245.59,5.4,150.88,43.99-22.26,287.07-54.77,373.23,97.23c40.04,70.63,31.22,147.59-11,214.54-45.89,72.77-106.58,140.62-154.33,212.63-6.18,6.82-14.04,4.9-20.82.35ZM258.48,175.04c11.17-12.23,23.1-23.93,34.11-36.36,3.06-6.73-15.35-23.26-20.52-27.57-90.72-75.64-227.39,18.29-179.68,129.81,10.13,23.67,60.53,76.59,81.65,92.93,9.09,7.03,14.7,8.05,24.88,1.64,38.52-45.02,80.88-86.73,120.36-130.81,7.39-8.25,22.98-22.94,23.94-33.2,1.55-16.51-19.1-32.94-33.68-21.08-24.86,25.6-49.5,51.48-74.03,77.38-7.11,7.5-40.97,47.89-46.67,49.59-3.61,1.08-5.53.43-8.63-1.38-3.33-1.96-27.7-27.04-31.03-31.3-8.29-10.63-17.82-28.55-1.69-37.22,8.72-4.68,14.21-2.14,21.28,3.37,5.68,4.42,25.37,28.89,30.77,27.46,20.1-20.67,39.51-42,58.94-63.27Z"/>
      <path class="cls-1" d="M258.48,175.04c-19.43,21.27-38.83,42.61-58.94,63.27-5.41,1.43-25.1-23.04-30.77-27.46-7.07-5.51-12.56-8.05-21.28-3.37-16.13,8.67-6.61,26.59,1.69,37.22,3.33,4.26,27.7,29.35,31.03,31.3,3.1,1.82,5.01,2.46,8.63,1.38,5.7-1.7,39.56-42.09,46.67-49.59,24.54-25.9,49.17-51.78,74.03-77.38,14.58-11.86,35.22,4.57,33.68,21.08-.96,10.26-16.55,24.95-23.94,33.2-39.48,44.08-81.85,85.79-120.36,130.81-10.19,6.4-15.79,5.39-24.88-1.64-21.12-16.34-71.52-69.25-81.65-92.93-47.7-111.51,88.96-205.45,179.68-129.81,5.17,4.31,23.58,20.83,20.52,27.57-11.01,12.43-22.94,24.13-34.11,36.36Z"/>
    </g>
  </g>
</svg>